<svg id="Layer_1" enable-background="new 0 0 512 512" height="512" viewBox="0 0 512 512" width="512" xmlns="http://www.w3.org/2000/svg"><g><path d="m416.666 78.201c8.284 0 15-6.716 15-15v-32.134c0-8.284-6.716-15-15-15s-15 6.716-15 15v32.133c0 8.285 6.716 15.001 15 15.001z"/><path d="m95.334 337.4c-8.284 0-15 6.716-15 15v32.133c0 8.284 6.716 15 15 15s15-6.716 15-15v-32.133c0-8.284-6.716-15-15-15z"/><path d="m416.666 174.6c8.284 0 15-6.716 15-15v-32.133c0-8.284-6.716-15-15-15s-15 6.716-15 15v32.133c0 8.284 6.716 15 15 15z"/><path d="m95.334 433.799c-8.284 0-15 6.716-15 15v32.133c0 8.284 6.716 15 15 15s15-6.716 15-15v-32.133c0-8.284-6.716-15-15-15z"/><path d="m288.133 241c-8.284 0-15 6.716-15 15s6.716 15 15 15h32.134c8.284 0 15-6.716 15-15s-6.716-15-15-15z"/><path d="m191.733 241c-8.284 0-15 6.716-15 15s6.716 15 15 15h32.134c8.284 0 15-6.716 15-15s-6.716-15-15-15z"/><path d="m384.533 271c25.989 0 47.133-21.144 47.133-47.133 0-8.284-6.716-15-15-15s-15 6.716-15 15c0 9.447-7.686 17.133-17.133 17.133-8.284 0-15 6.716-15 15s6.716 15 15 15z"/><path d="m127.451 241c-25.98 0-47.117 21.137-47.117 47.133 0 8.284 6.716 14.992 15 14.992s15-6.724 15-15.008c0-9.438 7.679-17.117 17.117-17.117h.016c8.284 0 14.992-6.716 14.992-15s-6.724-15-15.008-15z"/><path d="m497 0c-8.284 0-15 6.716-15 15v208.867c0 53.822-43.547 97.466-97.466 97.466h-208.866c-8.284 0-15 6.716-15 15v160.667c0 8.284 6.716 15 15 15s15-6.716 15-15v-145.667h193.866c70.389 0 127.466-56.95 127.466-127.466v-208.867c0-8.284-6.716-15-15-15z"/><path d="m336.332 190.667c8.284 0 15-6.716 15-15v-160.667c0-8.284-6.716-15-15-15s-15 6.716-15 15v145.667h-193.866c-70.411 0-127.466 56.962-127.466 127.466v208.867c0 8.284 6.716 15 15 15s15-6.716 15-15v-208.867c0-53.839 43.555-97.466 97.466-97.466z"/></g></svg>